<?xml version="1.0" encoding="UTF-8" standalone="no"?>
<!DOCTYPE svg PUBLIC "-//W3C//DTD SVG 1.1//EN"
 "http://www.w3.org/Graphics/SVG/1.1/DTD/svg11.dtd">
<!-- Generated by graphviz version 2.47.3 (20210619.1520)
 -->
<!-- Title: dependencies Pages: 1 -->
<svg width="3024pt" height="247pt"
 viewBox="0.00 0.00 3024.00 246.80" xmlns="http://www.w3.org/2000/svg" xmlns:xlink="http://www.w3.org/1999/xlink">
<g id="graph0" class="graph" transform="scale(1 1) rotate(0) translate(4 242.8)">
<title>dependencies</title>
<polygon fill="white" stroke="transparent" points="-4,4 -4,-242.8 3020,-242.8 3020,4 -4,4"/>
<text text-anchor="middle" x="1508" y="-8.2" font-family="sans-serif" font-size="14.00">dependencies</text>
<g id="clust1" class="cluster">
<title>cluster_AppModule</title>
<polygon fill="none" stroke="black" stroke-dasharray="1,5" points="8,-32.8 8,-230.8 3008,-230.8 3008,-32.8 8,-32.8"/>
</g>
<g id="clust19" class="cluster">
<title>cluster_AppModule_providers</title>
<polygon fill="none" stroke="black" points="2472,-40.8 2472,-92.8 3000,-92.8 3000,-40.8 2472,-40.8"/>
</g>
<g id="clust16" class="cluster">
<title>cluster_AppModule_imports</title>
<polygon fill="none" stroke="black" points="1944,-40.8 1944,-92.8 2464,-92.8 2464,-40.8 1944,-40.8"/>
</g>
<g id="clust18" class="cluster">
<title>cluster_AppModule_bootstrap</title>
<polygon fill="none" stroke="black" points="1338,-170.8 1338,-222.8 1462,-222.8 1462,-170.8 1338,-170.8"/>
</g>
<g id="clust2" class="cluster">
<title>cluster_AppModule_declarations</title>
<polygon fill="none" stroke="black" points="16,-40.8 16,-92.8 1936,-92.8 1936,-40.8 16,-40.8"/>
</g>
<!-- AppComponent -->
<g id="node1" class="node">
<title>AppComponent</title>
<polygon fill="#ffffb3" stroke="black" points="1927.94,-84.8 1822.06,-84.8 1822.06,-48.8 1927.94,-48.8 1927.94,-84.8"/>
<text text-anchor="middle" x="1875" y="-62.6" font-family="Times,serif" font-size="14.00">AppComponent</text>
</g>
<!-- AppModule -->
<g id="node14" class="node">
<title>AppModule</title>
<polygon fill="#8dd3c7" stroke="black" points="1441.66,-149.8 1438.66,-153.8 1417.66,-153.8 1414.66,-149.8 1358.34,-149.8 1358.34,-113.8 1441.66,-113.8 1441.66,-149.8"/>
<text text-anchor="middle" x="1400" y="-127.6" font-family="Times,serif" font-size="14.00">AppModule</text>
</g>
<!-- AppComponent&#45;&gt;AppModule -->
<g id="edge1" class="edge">
<title>AppComponent&#45;&gt;AppModule</title>
<path fill="none" stroke="black" d="M1875,-84.82C1875,-102.17 1875,-125.8 1875,-125.8 1875,-125.8 1451.74,-125.8 1451.74,-125.8"/>
<polygon fill="black" stroke="black" points="1451.74,-122.3 1441.74,-125.8 1451.74,-129.3 1451.74,-122.3"/>
</g>
<!-- MenuComponent -->
<g id="node2" class="node">
<title>MenuComponent</title>
<polygon fill="#ffffb3" stroke="black" points="1803.99,-84.8 1690.01,-84.8 1690.01,-48.8 1803.99,-48.8 1803.99,-84.8"/>
<text text-anchor="middle" x="1747" y="-62.6" font-family="Times,serif" font-size="14.00">MenuComponent</text>
</g>
<!-- MenuComponent&#45;&gt;AppModule -->
<g id="edge2" class="edge">
<title>MenuComponent&#45;&gt;AppModule</title>
<path fill="none" stroke="black" d="M1747,-84.81C1747,-100.85 1747,-121.8 1747,-121.8 1747,-121.8 1451.86,-121.8 1451.86,-121.8"/>
<polygon fill="black" stroke="black" points="1451.86,-118.3 1441.86,-121.8 1451.86,-125.3 1451.86,-118.3"/>
</g>
<!-- RodapeComponent -->
<g id="node3" class="node">
<title>RodapeComponent</title>
<polygon fill="#ffffb3" stroke="black" points="1672.1,-84.8 1547.9,-84.8 1547.9,-48.8 1672.1,-48.8 1672.1,-84.8"/>
<text text-anchor="middle" x="1610" y="-62.6" font-family="Times,serif" font-size="14.00">RodapeComponent</text>
</g>
<!-- RodapeComponent&#45;&gt;AppModule -->
<g id="edge3" class="edge">
<title>RodapeComponent&#45;&gt;AppModule</title>
<path fill="none" stroke="black" d="M1610,-84.92C1610,-99.58 1610,-117.8 1610,-117.8 1610,-117.8 1451.74,-117.8 1451.74,-117.8"/>
<polygon fill="black" stroke="black" points="1451.74,-114.3 1441.74,-117.8 1451.74,-121.3 1451.74,-114.3"/>
</g>
<!-- EntrarComponent -->
<g id="node4" class="node">
<title>EntrarComponent</title>
<polygon fill="#ffffb3" stroke="black" points="1530.31,-84.8 1413.69,-84.8 1413.69,-48.8 1530.31,-48.8 1530.31,-84.8"/>
<text text-anchor="middle" x="1472" y="-62.6" font-family="Times,serif" font-size="14.00">EntrarComponent</text>
</g>
<!-- EntrarComponent&#45;&gt;AppModule -->
<g id="edge4" class="edge">
<title>EntrarComponent&#45;&gt;AppModule</title>
<path fill="none" stroke="black" d="M1427.84,-84.91C1427.84,-84.91 1427.84,-103.79 1427.84,-103.79"/>
<polygon fill="black" stroke="black" points="1424.34,-103.79 1427.84,-113.79 1431.34,-103.79 1424.34,-103.79"/>
</g>
<!-- CadastrarComponent -->
<g id="node5" class="node">
<title>CadastrarComponent</title>
<polygon fill="#ffffb3" stroke="black" points="1395.47,-84.8 1260.53,-84.8 1260.53,-48.8 1395.47,-48.8 1395.47,-84.8"/>
<text text-anchor="middle" x="1328" y="-62.6" font-family="Times,serif" font-size="14.00">CadastrarComponent</text>
</g>
<!-- CadastrarComponent&#45;&gt;AppModule -->
<g id="edge5" class="edge">
<title>CadastrarComponent&#45;&gt;AppModule</title>
<path fill="none" stroke="black" d="M1376.83,-84.91C1376.83,-84.91 1376.83,-103.79 1376.83,-103.79"/>
<polygon fill="black" stroke="black" points="1373.33,-103.79 1376.83,-113.79 1380.33,-103.79 1373.33,-103.79"/>
</g>
<!-- HomeComponent -->
<g id="node6" class="node">
<title>HomeComponent</title>
<polygon fill="#ffffb3" stroke="black" points="1242.55,-84.8 1127.45,-84.8 1127.45,-48.8 1242.55,-48.8 1242.55,-84.8"/>
<text text-anchor="middle" x="1185" y="-62.6" font-family="Times,serif" font-size="14.00">HomeComponent</text>
</g>
<!-- HomeComponent&#45;&gt;AppModule -->
<g id="edge6" class="edge">
<title>HomeComponent&#45;&gt;AppModule</title>
<path fill="none" stroke="black" d="M1185,-84.92C1185,-99.58 1185,-117.8 1185,-117.8 1185,-117.8 1348.29,-117.8 1348.29,-117.8"/>
<polygon fill="black" stroke="black" points="1348.29,-121.3 1358.29,-117.8 1348.29,-114.3 1348.29,-121.3"/>
</g>
<!-- InicioComponent -->
<g id="node7" class="node">
<title>InicioComponent</title>
<polygon fill="#ffffb3" stroke="black" points="1108.99,-84.8 995.01,-84.8 995.01,-48.8 1108.99,-48.8 1108.99,-84.8"/>
<text text-anchor="middle" x="1052" y="-62.6" font-family="Times,serif" font-size="14.00">InicioComponent</text>
</g>
<!-- InicioComponent&#45;&gt;AppModule -->
<g id="edge7" class="edge">
<title>InicioComponent&#45;&gt;AppModule</title>
<path fill="none" stroke="black" d="M1052,-84.81C1052,-100.85 1052,-121.8 1052,-121.8 1052,-121.8 1348.02,-121.8 1348.02,-121.8"/>
<polygon fill="black" stroke="black" points="1348.02,-125.3 1358.02,-121.8 1348.02,-118.3 1348.02,-125.3"/>
</g>
<!-- TemaComponent -->
<g id="node8" class="node">
<title>TemaComponent</title>
<polygon fill="#ffffb3" stroke="black" points="976.7,-84.8 863.3,-84.8 863.3,-48.8 976.7,-48.8 976.7,-84.8"/>
<text text-anchor="middle" x="920" y="-62.6" font-family="Times,serif" font-size="14.00">TemaComponent</text>
</g>
<!-- TemaComponent&#45;&gt;AppModule -->
<g id="edge8" class="edge">
<title>TemaComponent&#45;&gt;AppModule</title>
<path fill="none" stroke="black" d="M920,-84.82C920,-102.17 920,-125.8 920,-125.8 920,-125.8 1348.24,-125.8 1348.24,-125.8"/>
<polygon fill="black" stroke="black" points="1348.24,-129.3 1358.24,-125.8 1348.24,-122.3 1348.24,-129.3"/>
</g>
<!-- TemaEditComponent -->
<g id="node9" class="node">
<title>TemaEditComponent</title>
<polygon fill="#ffffb3" stroke="black" points="845.04,-84.8 708.96,-84.8 708.96,-48.8 845.04,-48.8 845.04,-84.8"/>
<text text-anchor="middle" x="777" y="-62.6" font-family="Times,serif" font-size="14.00">TemaEditComponent</text>
</g>
<!-- TemaEditComponent&#45;&gt;AppModule -->
<g id="edge9" class="edge">
<title>TemaEditComponent&#45;&gt;AppModule</title>
<path fill="none" stroke="black" d="M777,-85.02C777,-103.63 777,-129.8 777,-129.8 777,-129.8 1348.16,-129.8 1348.16,-129.8"/>
<polygon fill="black" stroke="black" points="1348.16,-133.3 1358.16,-129.8 1348.16,-126.3 1348.16,-133.3"/>
</g>
<!-- TemaDeleteComponent -->
<g id="node10" class="node">
<title>TemaDeleteComponent</title>
<polygon fill="#ffffb3" stroke="black" points="690.74,-84.8 541.26,-84.8 541.26,-48.8 690.74,-48.8 690.74,-84.8"/>
<text text-anchor="middle" x="616" y="-62.6" font-family="Times,serif" font-size="14.00">TemaDeleteComponent</text>
</g>
<!-- TemaDeleteComponent&#45;&gt;AppModule -->
<g id="edge10" class="edge">
<title>TemaDeleteComponent&#45;&gt;AppModule</title>
<path fill="none" stroke="black" d="M616,-85.11C616,-104.95 616,-133.8 616,-133.8 616,-133.8 1348.13,-133.8 1348.13,-133.8"/>
<polygon fill="black" stroke="black" points="1348.13,-137.3 1358.13,-133.8 1348.13,-130.3 1348.13,-137.3"/>
</g>
<!-- PostagemEditComponent -->
<g id="node11" class="node">
<title>PostagemEditComponent</title>
<polygon fill="#ffffb3" stroke="black" points="523.6,-84.8 364.4,-84.8 364.4,-48.8 523.6,-48.8 523.6,-84.8"/>
<text text-anchor="middle" x="444" y="-62.6" font-family="Times,serif" font-size="14.00">PostagemEditComponent</text>
</g>
<!-- PostagemEditComponent&#45;&gt;AppModule -->
<g id="edge11" class="edge">
<title>PostagemEditComponent&#45;&gt;AppModule</title>
<path fill="none" stroke="black" d="M444,-85.08C444,-106.12 444,-137.8 444,-137.8 444,-137.8 1348.31,-137.8 1348.31,-137.8"/>
<polygon fill="black" stroke="black" points="1348.31,-141.3 1358.31,-137.8 1348.31,-134.3 1348.31,-141.3"/>
</g>
<!-- PostagemDeleteComponent -->
<g id="node12" class="node">
<title>PostagemDeleteComponent</title>
<polygon fill="#ffffb3" stroke="black" points="346.3,-84.8 173.7,-84.8 173.7,-48.8 346.3,-48.8 346.3,-84.8"/>
<text text-anchor="middle" x="260" y="-62.6" font-family="Times,serif" font-size="14.00">PostagemDeleteComponent</text>
</g>
<!-- PostagemDeleteComponent&#45;&gt;AppModule -->
<g id="edge12" class="edge">
<title>PostagemDeleteComponent&#45;&gt;AppModule</title>
<path fill="none" stroke="black" d="M260,-84.96C260,-107.15 260,-141.8 260,-141.8 260,-141.8 1348.07,-141.8 1348.07,-141.8"/>
<polygon fill="black" stroke="black" points="1348.07,-145.3 1358.07,-141.8 1348.07,-138.3 1348.07,-145.3"/>
</g>
<!-- UserEditComponent -->
<g id="node13" class="node">
<title>UserEditComponent</title>
<polygon fill="#ffffb3" stroke="black" points="155.59,-84.8 24.41,-84.8 24.41,-48.8 155.59,-48.8 155.59,-84.8"/>
<text text-anchor="middle" x="90" y="-62.6" font-family="Times,serif" font-size="14.00">UserEditComponent</text>
</g>
<!-- UserEditComponent&#45;&gt;AppModule -->
<g id="edge13" class="edge">
<title>UserEditComponent&#45;&gt;AppModule</title>
<path fill="none" stroke="black" d="M90,-85.12C90,-108.46 90,-145.8 90,-145.8 90,-145.8 1348.26,-145.8 1348.26,-145.8"/>
<polygon fill="black" stroke="black" points="1348.26,-149.3 1358.26,-145.8 1348.26,-142.3 1348.26,-149.3"/>
</g>
<!-- AppComponent  -->
<g id="node19" class="node">
<title>AppComponent </title>
<polygon fill="#80b1d3" stroke="black" points="1454.44,-214.8 1345.56,-214.8 1345.56,-178.8 1454.44,-178.8 1454.44,-214.8"/>
<text text-anchor="middle" x="1400" y="-192.6" font-family="Times,serif" font-size="14.00">AppComponent </text>
</g>
<!-- AppModule&#45;&gt;AppComponent  -->
<g id="edge18" class="edge">
<title>AppModule&#45;&gt;AppComponent </title>
<path fill="none" stroke="black" stroke-dasharray="1,5" d="M1400,-149.91C1400,-149.91 1400,-168.79 1400,-168.79"/>
<polygon fill="black" stroke="black" points="1396.5,-168.79 1400,-178.79 1403.5,-168.79 1396.5,-168.79"/>
</g>
<!-- BrowserModule -->
<g id="node15" class="node">
<title>BrowserModule</title>
<polygon fill="#8dd3c7" stroke="black" points="2456.47,-84.8 2453.47,-88.8 2432.47,-88.8 2429.47,-84.8 2349.53,-84.8 2349.53,-48.8 2456.47,-48.8 2456.47,-84.8"/>
<text text-anchor="middle" x="2403" y="-62.6" font-family="Times,serif" font-size="14.00">BrowserModule</text>
</g>
<!-- BrowserModule&#45;&gt;AppModule -->
<g id="edge14" class="edge">
<title>BrowserModule&#45;&gt;AppModule</title>
<path fill="none" stroke="black" d="M2403,-84.96C2403,-107.15 2403,-141.8 2403,-141.8 2403,-141.8 1451.82,-141.8 1451.82,-141.8"/>
<polygon fill="black" stroke="black" points="1451.82,-138.3 1441.82,-141.8 1451.82,-145.3 1451.82,-138.3"/>
</g>
<!-- AppRoutingModule -->
<g id="node16" class="node">
<title>AppRoutingModule</title>
<polygon fill="#8dd3c7" stroke="black" points="2331.27,-84.8 2328.27,-88.8 2307.27,-88.8 2304.27,-84.8 2202.73,-84.8 2202.73,-48.8 2331.27,-48.8 2331.27,-84.8"/>
<text text-anchor="middle" x="2267" y="-62.6" font-family="Times,serif" font-size="14.00">AppRoutingModule</text>
</g>
<!-- AppRoutingModule&#45;&gt;AppModule -->
<g id="edge15" class="edge">
<title>AppRoutingModule&#45;&gt;AppModule</title>
<path fill="none" stroke="black" d="M2267,-85.08C2267,-106.12 2267,-137.8 2267,-137.8 2267,-137.8 1451.82,-137.8 1451.82,-137.8"/>
<polygon fill="black" stroke="black" points="1451.82,-134.3 1441.82,-137.8 1451.82,-141.3 1451.82,-134.3"/>
</g>
<!-- HttpClientModule -->
<g id="node17" class="node">
<title>HttpClientModule</title>
<polygon fill="#8dd3c7" stroke="black" points="2184.16,-84.8 2181.16,-88.8 2160.16,-88.8 2157.16,-84.8 2065.84,-84.8 2065.84,-48.8 2184.16,-48.8 2184.16,-84.8"/>
<text text-anchor="middle" x="2125" y="-62.6" font-family="Times,serif" font-size="14.00">HttpClientModule</text>
</g>
<!-- HttpClientModule&#45;&gt;AppModule -->
<g id="edge16" class="edge">
<title>HttpClientModule&#45;&gt;AppModule</title>
<path fill="none" stroke="black" d="M2125,-85.11C2125,-104.95 2125,-133.8 2125,-133.8 2125,-133.8 1451.85,-133.8 1451.85,-133.8"/>
<polygon fill="black" stroke="black" points="1451.85,-130.3 1441.85,-133.8 1451.85,-137.3 1451.85,-130.3"/>
</g>
<!-- FormsModule -->
<g id="node18" class="node">
<title>FormsModule</title>
<polygon fill="#8dd3c7" stroke="black" points="2047.83,-84.8 2044.83,-88.8 2023.83,-88.8 2020.83,-84.8 1952.17,-84.8 1952.17,-48.8 2047.83,-48.8 2047.83,-84.8"/>
<text text-anchor="middle" x="2000" y="-62.6" font-family="Times,serif" font-size="14.00">FormsModule</text>
</g>
<!-- FormsModule&#45;&gt;AppModule -->
<g id="edge17" class="edge">
<title>FormsModule&#45;&gt;AppModule</title>
<path fill="none" stroke="black" d="M2000,-85.02C2000,-103.63 2000,-129.8 2000,-129.8 2000,-129.8 1451.71,-129.8 1451.71,-129.8"/>
<polygon fill="black" stroke="black" points="1451.71,-126.3 1441.71,-129.8 1451.71,-133.3 1451.71,-126.3"/>
</g>
<!-- { provide: LocationStrategy, useClass: HashLocationStrategy } -->
<g id="node20" class="node">
<title>{ provide: LocationStrategy, useClass: HashLocationStrategy }</title>
<ellipse fill="#fdb462" stroke="black" cx="2736" cy="-66.8" rx="256.11" ry="18"/>
<text text-anchor="middle" x="2736" y="-62.6" font-family="Times,serif" font-size="14.00">{ provide: LocationStrategy, useClass: HashLocationStrategy }</text>
</g>
<!-- { provide: LocationStrategy, useClass: HashLocationStrategy }&#45;&gt;AppModule -->
<g id="edge19" class="edge">
<title>{ provide: LocationStrategy, useClass: HashLocationStrategy }&#45;&gt;AppModule</title>
<path fill="none" stroke="black" d="M2736,-85.12C2736,-108.46 2736,-145.8 2736,-145.8 2736,-145.8 1451.82,-145.8 1451.82,-145.8"/>
<polygon fill="black" stroke="black" points="1451.82,-142.3 1441.82,-145.8 1451.82,-149.3 1451.82,-142.3"/>
</g>
</g>
</svg>
