<?xml version="1.0" encoding="UTF-8" standalone="no"?>
<!DOCTYPE svg PUBLIC "-//W3C//DTD SVG 1.1//EN"
 "http://www.w3.org/Graphics/SVG/1.1/DTD/svg11.dtd">
<!-- Generated by graphviz version 2.47.3 (20210619.1520)
 -->
<!-- Title: dependencies Pages: 1 -->
<svg width="3367pt" height="253pt"
 viewBox="0.00 0.00 3367.00 252.80" xmlns="http://www.w3.org/2000/svg" xmlns:xlink="http://www.w3.org/1999/xlink">
<g id="graph0" class="graph" transform="scale(1 1) rotate(0) translate(4 248.8)">
<title>dependencies</title>
<polygon fill="white" stroke="transparent" points="-4,4 -4,-248.8 3363,-248.8 3363,4 -4,4"/>
<text text-anchor="middle" x="1679.5" y="-8.2" font-family="sans-serif" font-size="14.00">dependencies</text>
<g id="clust1" class="cluster">
<title>cluster_AppModule</title>
<polygon fill="none" stroke="black" stroke-dasharray="1,5" points="8,-32.8 8,-236.8 3007,-236.8 3007,-32.8 8,-32.8"/>
</g>
<g id="clust2" class="cluster">
<title>cluster_AppModule_declarations</title>
<polygon fill="none" stroke="black" points="552,-40.8 552,-92.8 2472,-92.8 2472,-40.8 552,-40.8"/>
</g>
<g id="clust16" class="cluster">
<title>cluster_AppModule_imports</title>
<polygon fill="none" stroke="black" points="2480,-40.8 2480,-92.8 2999,-92.8 2999,-40.8 2480,-40.8"/>
</g>
<g id="clust18" class="cluster">
<title>cluster_AppModule_bootstrap</title>
<polygon fill="none" stroke="black" points="1730,-176.8 1730,-228.8 1854,-228.8 1854,-176.8 1730,-176.8"/>
</g>
<g id="clust19" class="cluster">
<title>cluster_AppModule_providers</title>
<polygon fill="none" stroke="black" points="16,-40.8 16,-92.8 544,-92.8 544,-40.8 16,-40.8"/>
</g>
<g id="clust20" class="cluster">
<title>cluster_AppRoutingModule</title>
<polygon fill="none" stroke="black" stroke-dasharray="1,5" points="3015,-100.8 3015,-168.8 3351,-168.8 3351,-100.8 3015,-100.8"/>
</g>
<g id="clust22" class="cluster">
<title>cluster_AppRoutingModule_imports</title>
<polygon fill="none" stroke="black" points="3149,-108.8 3149,-160.8 3343,-160.8 3343,-108.8 3149,-108.8"/>
</g>
<g id="clust23" class="cluster">
<title>cluster_AppRoutingModule_exports</title>
<polygon fill="none" stroke="black" points="3023,-108.8 3023,-160.8 3141,-160.8 3141,-108.8 3023,-108.8"/>
</g>
<!-- AppComponent -->
<g id="node1" class="node">
<title>AppComponent</title>
<polygon fill="#ffffb3" stroke="black" points="2463.94,-84.8 2358.06,-84.8 2358.06,-48.8 2463.94,-48.8 2463.94,-84.8"/>
<text text-anchor="middle" x="2411" y="-62.6" font-family="Times,serif" font-size="14.00">AppComponent</text>
</g>
<!-- AppModule -->
<g id="node14" class="node">
<title>AppModule</title>
<polygon fill="#8dd3c7" stroke="black" points="1833.66,-152.8 1830.66,-156.8 1809.66,-156.8 1806.66,-152.8 1750.34,-152.8 1750.34,-116.8 1833.66,-116.8 1833.66,-152.8"/>
<text text-anchor="middle" x="1792" y="-130.6" font-family="Times,serif" font-size="14.00">AppModule</text>
</g>
<!-- AppComponent&#45;&gt;AppModule -->
<g id="edge1" class="edge">
<title>AppComponent&#45;&gt;AppModule</title>
<path fill="none" stroke="black" d="M2411,-84.83C2411,-104.38 2411,-132.8 2411,-132.8 2411,-132.8 1844.06,-132.8 1844.06,-132.8"/>
<polygon fill="black" stroke="black" points="1844.06,-129.3 1834.06,-132.8 1844.06,-136.3 1844.06,-129.3"/>
</g>
<!-- MenuComponent -->
<g id="node2" class="node">
<title>MenuComponent</title>
<polygon fill="#ffffb3" stroke="black" points="2339.99,-84.8 2226.01,-84.8 2226.01,-48.8 2339.99,-48.8 2339.99,-84.8"/>
<text text-anchor="middle" x="2283" y="-62.6" font-family="Times,serif" font-size="14.00">MenuComponent</text>
</g>
<!-- MenuComponent&#45;&gt;AppModule -->
<g id="edge2" class="edge">
<title>MenuComponent&#45;&gt;AppModule</title>
<path fill="none" stroke="black" d="M2283,-85.07C2283,-103.36 2283,-128.8 2283,-128.8 2283,-128.8 1843.86,-128.8 1843.86,-128.8"/>
<polygon fill="black" stroke="black" points="1843.86,-125.3 1833.86,-128.8 1843.86,-132.3 1843.86,-125.3"/>
</g>
<!-- RodapeComponent -->
<g id="node3" class="node">
<title>RodapeComponent</title>
<polygon fill="#ffffb3" stroke="black" points="2208.1,-84.8 2083.9,-84.8 2083.9,-48.8 2208.1,-48.8 2208.1,-84.8"/>
<text text-anchor="middle" x="2146" y="-62.6" font-family="Times,serif" font-size="14.00">RodapeComponent</text>
</g>
<!-- RodapeComponent&#45;&gt;AppModule -->
<g id="edge3" class="edge">
<title>RodapeComponent&#45;&gt;AppModule</title>
<path fill="none" stroke="black" d="M2146,-84.83C2146,-101.86 2146,-124.8 2146,-124.8 2146,-124.8 1844,-124.8 1844,-124.8"/>
<polygon fill="black" stroke="black" points="1844,-121.3 1834,-124.8 1844,-128.3 1844,-121.3"/>
</g>
<!-- EntrarComponent -->
<g id="node4" class="node">
<title>EntrarComponent</title>
<polygon fill="#ffffb3" stroke="black" points="2066.31,-84.8 1949.69,-84.8 1949.69,-48.8 2066.31,-48.8 2066.31,-84.8"/>
<text text-anchor="middle" x="2008" y="-62.6" font-family="Times,serif" font-size="14.00">EntrarComponent</text>
</g>
<!-- EntrarComponent&#45;&gt;AppModule -->
<g id="edge4" class="edge">
<title>EntrarComponent&#45;&gt;AppModule</title>
<path fill="none" stroke="black" d="M2008,-85.08C2008,-100.75 2008,-120.8 2008,-120.8 2008,-120.8 1843.9,-120.8 1843.9,-120.8"/>
<polygon fill="black" stroke="black" points="1843.9,-117.3 1833.9,-120.8 1843.9,-124.3 1843.9,-117.3"/>
</g>
<!-- CadastrarComponent -->
<g id="node5" class="node">
<title>CadastrarComponent</title>
<polygon fill="#ffffb3" stroke="black" points="1931.47,-84.8 1796.53,-84.8 1796.53,-48.8 1931.47,-48.8 1931.47,-84.8"/>
<text text-anchor="middle" x="1864" y="-62.6" font-family="Times,serif" font-size="14.00">CadastrarComponent</text>
</g>
<!-- CadastrarComponent&#45;&gt;AppModule -->
<g id="edge5" class="edge">
<title>CadastrarComponent&#45;&gt;AppModule</title>
<path fill="none" stroke="black" d="M1815.17,-85.02C1815.17,-85.02 1815.17,-106.53 1815.17,-106.53"/>
<polygon fill="black" stroke="black" points="1811.67,-106.53 1815.17,-116.53 1818.67,-106.53 1811.67,-106.53"/>
</g>
<!-- HomeComponent -->
<g id="node6" class="node">
<title>HomeComponent</title>
<polygon fill="#ffffb3" stroke="black" points="1778.55,-84.8 1663.45,-84.8 1663.45,-48.8 1778.55,-48.8 1778.55,-84.8"/>
<text text-anchor="middle" x="1721" y="-62.6" font-family="Times,serif" font-size="14.00">HomeComponent</text>
</g>
<!-- HomeComponent&#45;&gt;AppModule -->
<g id="edge6" class="edge">
<title>HomeComponent&#45;&gt;AppModule</title>
<path fill="none" stroke="black" d="M1764.47,-85.02C1764.47,-85.02 1764.47,-106.53 1764.47,-106.53"/>
<polygon fill="black" stroke="black" points="1760.97,-106.53 1764.47,-116.53 1767.97,-106.53 1760.97,-106.53"/>
</g>
<!-- InicioComponent -->
<g id="node7" class="node">
<title>InicioComponent</title>
<polygon fill="#ffffb3" stroke="black" points="1644.99,-84.8 1531.01,-84.8 1531.01,-48.8 1644.99,-48.8 1644.99,-84.8"/>
<text text-anchor="middle" x="1588" y="-62.6" font-family="Times,serif" font-size="14.00">InicioComponent</text>
</g>
<!-- InicioComponent&#45;&gt;AppModule -->
<g id="edge7" class="edge">
<title>InicioComponent&#45;&gt;AppModule</title>
<path fill="none" stroke="black" d="M1588,-85.08C1588,-100.75 1588,-120.8 1588,-120.8 1588,-120.8 1740.23,-120.8 1740.23,-120.8"/>
<polygon fill="black" stroke="black" points="1740.23,-124.3 1750.23,-120.8 1740.23,-117.3 1740.23,-124.3"/>
</g>
<!-- TemaComponent -->
<g id="node8" class="node">
<title>TemaComponent</title>
<polygon fill="#ffffb3" stroke="black" points="1512.7,-84.8 1399.3,-84.8 1399.3,-48.8 1512.7,-48.8 1512.7,-84.8"/>
<text text-anchor="middle" x="1456" y="-62.6" font-family="Times,serif" font-size="14.00">TemaComponent</text>
</g>
<!-- TemaComponent&#45;&gt;AppModule -->
<g id="edge8" class="edge">
<title>TemaComponent&#45;&gt;AppModule</title>
<path fill="none" stroke="black" d="M1456,-84.83C1456,-101.86 1456,-124.8 1456,-124.8 1456,-124.8 1740.12,-124.8 1740.12,-124.8"/>
<polygon fill="black" stroke="black" points="1740.12,-128.3 1750.12,-124.8 1740.12,-121.3 1740.12,-128.3"/>
</g>
<!-- TemaEditComponent -->
<g id="node9" class="node">
<title>TemaEditComponent</title>
<polygon fill="#ffffb3" stroke="black" points="1381.04,-84.8 1244.96,-84.8 1244.96,-48.8 1381.04,-48.8 1381.04,-84.8"/>
<text text-anchor="middle" x="1313" y="-62.6" font-family="Times,serif" font-size="14.00">TemaEditComponent</text>
</g>
<!-- TemaEditComponent&#45;&gt;AppModule -->
<g id="edge9" class="edge">
<title>TemaEditComponent&#45;&gt;AppModule</title>
<path fill="none" stroke="black" d="M1313,-85.07C1313,-103.36 1313,-128.8 1313,-128.8 1313,-128.8 1740.33,-128.8 1740.33,-128.8"/>
<polygon fill="black" stroke="black" points="1740.33,-132.3 1750.33,-128.8 1740.33,-125.3 1740.33,-132.3"/>
</g>
<!-- TemaDeleteComponent -->
<g id="node10" class="node">
<title>TemaDeleteComponent</title>
<polygon fill="#ffffb3" stroke="black" points="1226.74,-84.8 1077.26,-84.8 1077.26,-48.8 1226.74,-48.8 1226.74,-84.8"/>
<text text-anchor="middle" x="1152" y="-62.6" font-family="Times,serif" font-size="14.00">TemaDeleteComponent</text>
</g>
<!-- TemaDeleteComponent&#45;&gt;AppModule -->
<g id="edge10" class="edge">
<title>TemaDeleteComponent&#45;&gt;AppModule</title>
<path fill="none" stroke="black" d="M1152,-84.83C1152,-104.38 1152,-132.8 1152,-132.8 1152,-132.8 1740.01,-132.8 1740.01,-132.8"/>
<polygon fill="black" stroke="black" points="1740.01,-136.3 1750.01,-132.8 1740.01,-129.3 1740.01,-136.3"/>
</g>
<!-- PostagemEditComponent -->
<g id="node11" class="node">
<title>PostagemEditComponent</title>
<polygon fill="#ffffb3" stroke="black" points="1059.6,-84.8 900.4,-84.8 900.4,-48.8 1059.6,-48.8 1059.6,-84.8"/>
<text text-anchor="middle" x="980" y="-62.6" font-family="Times,serif" font-size="14.00">PostagemEditComponent</text>
</g>
<!-- PostagemEditComponent&#45;&gt;AppModule -->
<g id="edge11" class="edge">
<title>PostagemEditComponent&#45;&gt;AppModule</title>
<path fill="none" stroke="black" d="M980,-84.83C980,-105.57 980,-136.8 980,-136.8 980,-136.8 1740.34,-136.8 1740.34,-136.8"/>
<polygon fill="black" stroke="black" points="1740.34,-140.3 1750.34,-136.8 1740.34,-133.3 1740.34,-140.3"/>
</g>
<!-- PostagemDeleteComponent -->
<g id="node12" class="node">
<title>PostagemDeleteComponent</title>
<polygon fill="#ffffb3" stroke="black" points="882.3,-84.8 709.7,-84.8 709.7,-48.8 882.3,-48.8 882.3,-84.8"/>
<text text-anchor="middle" x="796" y="-62.6" font-family="Times,serif" font-size="14.00">PostagemDeleteComponent</text>
</g>
<!-- PostagemDeleteComponent&#45;&gt;AppModule -->
<g id="edge12" class="edge">
<title>PostagemDeleteComponent&#45;&gt;AppModule</title>
<path fill="none" stroke="black" d="M796,-85.09C796,-107.01 796,-140.8 796,-140.8 796,-140.8 1740.16,-140.8 1740.16,-140.8"/>
<polygon fill="black" stroke="black" points="1740.16,-144.3 1750.16,-140.8 1740.16,-137.3 1740.16,-144.3"/>
</g>
<!-- UserEditComponent -->
<g id="node13" class="node">
<title>UserEditComponent</title>
<polygon fill="#ffffb3" stroke="black" points="691.59,-84.8 560.41,-84.8 560.41,-48.8 691.59,-48.8 691.59,-84.8"/>
<text text-anchor="middle" x="626" y="-62.6" font-family="Times,serif" font-size="14.00">UserEditComponent</text>
</g>
<!-- UserEditComponent&#45;&gt;AppModule -->
<g id="edge13" class="edge">
<title>UserEditComponent&#45;&gt;AppModule</title>
<path fill="none" stroke="black" d="M626,-84.89C626,-107.93 626,-144.8 626,-144.8 626,-144.8 1740.16,-144.8 1740.16,-144.8"/>
<polygon fill="black" stroke="black" points="1740.16,-148.3 1750.16,-144.8 1740.16,-141.3 1740.16,-148.3"/>
</g>
<!-- AppComponent  -->
<g id="node19" class="node">
<title>AppComponent </title>
<polygon fill="#80b1d3" stroke="black" points="1846.44,-220.8 1737.56,-220.8 1737.56,-184.8 1846.44,-184.8 1846.44,-220.8"/>
<text text-anchor="middle" x="1792" y="-198.6" font-family="Times,serif" font-size="14.00">AppComponent </text>
</g>
<!-- AppModule&#45;&gt;AppComponent  -->
<g id="edge18" class="edge">
<title>AppModule&#45;&gt;AppComponent </title>
<path fill="none" stroke="black" stroke-dasharray="1,5" d="M1792,-153.02C1792,-153.02 1792,-174.53 1792,-174.53"/>
<polygon fill="black" stroke="black" points="1788.5,-174.53 1792,-184.53 1795.5,-174.53 1788.5,-174.53"/>
</g>
<!-- BrowserModule -->
<g id="node15" class="node">
<title>BrowserModule</title>
<polygon fill="#8dd3c7" stroke="black" points="2844.47,-84.8 2841.47,-88.8 2820.47,-88.8 2817.47,-84.8 2737.53,-84.8 2737.53,-48.8 2844.47,-48.8 2844.47,-84.8"/>
<text text-anchor="middle" x="2791" y="-62.6" font-family="Times,serif" font-size="14.00">BrowserModule</text>
</g>
<!-- BrowserModule&#45;&gt;AppModule -->
<g id="edge14" class="edge">
<title>BrowserModule&#45;&gt;AppModule</title>
<path fill="none" stroke="black" d="M2791,-84.89C2791,-107.93 2791,-144.8 2791,-144.8 2791,-144.8 1843.97,-144.8 1843.97,-144.8"/>
<polygon fill="black" stroke="black" points="1843.97,-141.3 1833.97,-144.8 1843.97,-148.3 1843.97,-141.3"/>
</g>
<!-- AppRoutingModule -->
<g id="node16" class="node">
<title>AppRoutingModule</title>
<polygon fill="#8dd3c7" stroke="black" points="2991.27,-84.8 2988.27,-88.8 2967.27,-88.8 2964.27,-84.8 2862.73,-84.8 2862.73,-48.8 2991.27,-48.8 2991.27,-84.8"/>
<text text-anchor="middle" x="2927" y="-62.6" font-family="Times,serif" font-size="14.00">AppRoutingModule</text>
</g>
<!-- AppRoutingModule&#45;&gt;AppModule -->
<g id="edge15" class="edge">
<title>AppRoutingModule&#45;&gt;AppModule</title>
<path fill="none" stroke="black" d="M2927,-85C2927,-109.16 2927,-148.8 2927,-148.8 2927,-148.8 1843.74,-148.8 1843.74,-148.8"/>
<polygon fill="black" stroke="black" points="1843.74,-145.3 1833.74,-148.8 1843.74,-152.3 1843.74,-145.3"/>
</g>
<!-- RouterModule  -->
<g id="node22" class="node">
<title>RouterModule </title>
<polygon fill="#fb8072" stroke="black" points="3132.65,-152.8 3031.35,-152.8 3031.35,-116.8 3132.65,-116.8 3132.65,-152.8"/>
<text text-anchor="middle" x="3082" y="-130.6" font-family="Times,serif" font-size="14.00">RouterModule </text>
</g>
<!-- AppRoutingModule&#45;&gt;RouterModule  -->
<g id="edge21" class="edge">
<title>AppRoutingModule&#45;&gt;RouterModule </title>
<path fill="none" stroke="black" stroke-dasharray="5,2" d="M2991.39,-72.8C3033.97,-72.8 3082,-72.8 3082,-72.8 3082,-72.8 3082,-106.53 3082,-106.53"/>
<polygon fill="black" stroke="black" points="3078.5,-106.53 3082,-116.53 3085.5,-106.53 3078.5,-106.53"/>
</g>
<!-- HttpClientModule -->
<g id="node17" class="node">
<title>HttpClientModule</title>
<polygon fill="#8dd3c7" stroke="black" points="2606.16,-84.8 2603.16,-88.8 2582.16,-88.8 2579.16,-84.8 2487.84,-84.8 2487.84,-48.8 2606.16,-48.8 2606.16,-84.8"/>
<text text-anchor="middle" x="2547" y="-62.6" font-family="Times,serif" font-size="14.00">HttpClientModule</text>
</g>
<!-- HttpClientModule&#45;&gt;AppModule -->
<g id="edge16" class="edge">
<title>HttpClientModule&#45;&gt;AppModule</title>
<path fill="none" stroke="black" d="M2547,-84.83C2547,-105.57 2547,-136.8 2547,-136.8 2547,-136.8 1843.67,-136.8 1843.67,-136.8"/>
<polygon fill="black" stroke="black" points="1843.67,-133.3 1833.67,-136.8 1843.67,-140.3 1843.67,-133.3"/>
</g>
<!-- FormsModule -->
<g id="node18" class="node">
<title>FormsModule</title>
<polygon fill="#8dd3c7" stroke="black" points="2719.83,-84.8 2716.83,-88.8 2695.83,-88.8 2692.83,-84.8 2624.17,-84.8 2624.17,-48.8 2719.83,-48.8 2719.83,-84.8"/>
<text text-anchor="middle" x="2672" y="-62.6" font-family="Times,serif" font-size="14.00">FormsModule</text>
</g>
<!-- FormsModule&#45;&gt;AppModule -->
<g id="edge17" class="edge">
<title>FormsModule&#45;&gt;AppModule</title>
<path fill="none" stroke="black" d="M2672,-85.09C2672,-107.01 2672,-140.8 2672,-140.8 2672,-140.8 1843.85,-140.8 1843.85,-140.8"/>
<polygon fill="black" stroke="black" points="1843.85,-137.3 1833.85,-140.8 1843.85,-144.3 1843.85,-137.3"/>
</g>
<!-- { provide: LocationStrategy, useClass: HashLocationStrategy } -->
<g id="node20" class="node">
<title>{ provide: LocationStrategy, useClass: HashLocationStrategy }</title>
<ellipse fill="#fdb462" stroke="black" cx="280" cy="-66.8" rx="256.11" ry="18"/>
<text text-anchor="middle" x="280" y="-62.6" font-family="Times,serif" font-size="14.00">{ provide: LocationStrategy, useClass: HashLocationStrategy }</text>
</g>
<!-- { provide: LocationStrategy, useClass: HashLocationStrategy }&#45;&gt;AppModule -->
<g id="edge19" class="edge">
<title>{ provide: LocationStrategy, useClass: HashLocationStrategy }&#45;&gt;AppModule</title>
<path fill="none" stroke="black" d="M280,-85C280,-109.16 280,-148.8 280,-148.8 280,-148.8 1739.98,-148.8 1739.98,-148.8"/>
<polygon fill="black" stroke="black" points="1739.98,-152.3 1749.98,-148.8 1739.98,-145.3 1739.98,-152.3"/>
</g>
<!-- RouterModule.forRoot(args) -->
<g id="node21" class="node">
<title>RouterModule.forRoot(args)</title>
<polygon fill="#8dd3c7" stroke="black" points="3334.84,-152.8 3331.84,-156.8 3310.84,-156.8 3307.84,-152.8 3157.16,-152.8 3157.16,-116.8 3334.84,-116.8 3334.84,-152.8"/>
<text text-anchor="middle" x="3246" y="-130.6" font-family="Times,serif" font-size="14.00">RouterModule.forRoot(args)</text>
</g>
<!-- RouterModule.forRoot(args)&#45;&gt;AppRoutingModule -->
<g id="edge20" class="edge">
<title>RouterModule.forRoot(args)&#45;&gt;AppRoutingModule</title>
<path fill="none" stroke="black" d="M3246,-116.51C3246,-94.59 3246,-60.8 3246,-60.8 3246,-60.8 3001.55,-60.8 3001.55,-60.8"/>
<polygon fill="black" stroke="black" points="3001.55,-57.3 2991.55,-60.8 3001.55,-64.3 3001.55,-57.3"/>
</g>
</g>
</svg>
